<?xml version="1.0"?>
<svg width="1200" height="300" xmlns="http://www.w3.org/2000/svg" xmlns:svg="http://www.w3.org/2000/svg" preserveAspectRatio="xMidYMid meet" version="1.0">
 <g class="layer">
  <title>Layer 1</title>
  <g fill="#000000" id="svg_1" transform="matrix(0.1 0 0 -0.1 0 0)">
   <path d="m4298,-647l-28,-4l0,-556l0,-555l118,6c64,4 150,9 191,12l74,6l-7,151c-4,92 -3,148 2,142c6,-6 31,-76 58,-157c34,-105 53,-148 64,-148c21,0 313,61 327,69c8,4 -10,59 -59,178l-70,172l36,44c61,74 105,245 91,354c-15,123 -75,236 -142,269c-34,17 -66,19 -333,20c-162,1 -307,0 -322,-3zm397,-286c15,-22 20,-84 9,-123c-3,-12 -17,-27 -30,-33c-49,-22 -52,-18 -56,82c-2,50 -2,95 -1,98c5,13 65,-5 78,-24z" fill="#0864bc" id="svg_2"/>
   <path d="m667,-657l-58,-4l6,-102c16,-269 22,-522 13,-543c-14,-30 -49,-44 -113,-44l-55,0l0,-164c0,-90 -3,-177 -6,-194l-6,-30l58,-8c101,-12 395,-10 441,4c54,16 98,53 126,106c18,36 22,61 25,196c4,147 -12,625 -24,738l-6,52l-172,-2c-94,-1 -197,-3 -229,-5z" fill="#0864bc" id="svg_3"/>
   <path d="m1326,-677c-3,-16 -44,-251 -91,-523c-47,-272 -87,-507 -91,-522l-6,-28l170,0l170,0l6,44l7,43l61,7c103,10 106,10 113,-26c15,-74 -3,-68 201,-68c101,0 184,2 184,5c0,3 -50,246 -110,542c-61,295 -110,540 -110,545c0,4 -112,8 -249,8l-249,0l-6,-27zm269,-567c14,-64 25,-120 25,-125c0,-5 -17,-12 -37,-15c-21,-4 -46,-9 -56,-12c-15,-5 -17,1 -15,53c1,32 5,63 8,68c4,6 13,48 20,94c15,101 21,94 55,-63z" fill="#0864bc" id="svg_4"/>
   <path d="m2245,-672c-93,-11 -171,-20 -172,-22c-2,-2 20,-240 49,-530l53,-526l319,2l320,3l82,530c45,292 81,531 80,531c0,1 -90,4 -198,8l-197,7l-5,-23c-3,-13 -19,-142 -36,-288c-18,-146 -35,-278 -40,-295l-7,-30l-6,35c-6,29 -57,589 -57,613c0,4 -3,6 -7,6c-5,-1 -84,-10 -178,-21z" fill="#0864bc" id="svg_5"/>
   <path d="m3016,-982c-3,-183 -7,-434 -9,-556l-2,-224l120,6c66,4 155,9 198,12l77,6l0,42c0,22 7,262 15,531c8,270 15,496 15,503c0,9 -47,12 -204,12l-204,0l-6,-332z" fill="#0864bc" id="svg_6"/>
   <path d="m3450,-1200l0,-550l248,0c137,0 310,-3 385,-7l137,-6l0,166l0,167l-182,0c-101,0 -200,3 -221,7c-37,6 -38,7 -35,42l3,36l198,3c182,2 198,4 193,20c-2,9 -8,76 -11,149l-7,132l-42,-4c-22,-2 -107,-7 -187,-10l-147,-5l-3,44l-4,43l95,7c52,3 149,6 215,6c156,0 167,3 161,44c-3,17 -8,84 -12,149l-6,117l-389,0l-389,0l0,-550z" fill="#0864bc" id="svg_7"/>
   <path d="m7640,-660c-64,-14 -145,-56 -175,-92c-80,-94 -105,-204 -105,-452c1,-367 36,-475 173,-537c49,-22 64,-24 238,-24l186,0l69,35c64,33 71,39 101,100c48,97 66,216 66,445c1,209 -12,295 -56,381c-32,62 -69,97 -132,125c-43,20 -70,23 -185,25c-74,2 -155,-1 -180,-6zm157,-357c15,-23 18,-49 17,-173c-1,-154 -15,-250 -41,-271c-39,-33 -59,76 -51,275c6,119 24,196 47,196c6,0 19,-12 28,-27z" fill="#0864bc" id="svg_8"/>
   <path d="m8248,-657l-28,-4l0,-556l0,-555l118,6c64,4 150,9 191,12l74,6l-7,151c-4,92 -3,148 2,142c6,-6 31,-76 58,-157c34,-105 53,-148 64,-148c21,0 313,61 327,69c8,4 -10,59 -59,178l-70,172l36,44c61,74 105,245 91,354c-15,123 -75,236 -142,269c-34,17 -66,19 -333,20c-162,1 -307,0 -322,-3zm397,-286c15,-22 20,-84 9,-123c-3,-12 -17,-27 -30,-33c-49,-22 -52,-18 -56,82c-2,50 -2,95 -1,98c5,13 65,-5 78,-24z" fill="#0864bc" id="svg_9"/>
   <path d="m11040,-660c-64,-14 -145,-56 -175,-92c-80,-94 -105,-204 -105,-452c1,-367 36,-475 173,-537c49,-22 64,-24 238,-24l186,0l69,35c64,33 71,39 101,100c48,97 66,216 66,445c1,209 -12,295 -56,381c-32,62 -69,97 -132,125c-43,20 -70,23 -185,25c-74,2 -155,-1 -180,-6zm157,-357c15,-23 18,-49 17,-173c-1,-154 -15,-250 -41,-271c-39,-33 -59,76 -51,275c6,119 24,196 47,196c6,0 19,-12 28,-27z" fill="#0864bc" id="svg_10"/>
   <path d="m6860,-795c-18,-75 -36,-133 -40,-128c-4,4 -20,61 -36,126l-28,117l-168,0l-168,0l0,-540l0,-540l155,0l155,0l0,31c0,17 -5,95 -11,173c-17,220 -10,223 41,21c24,-99 45,-181 46,-183c1,-3 136,29 142,33c1,1 9,60 17,130c8,70 16,129 18,132c6,5 13,-48 28,-203l12,-122l146,-9c80,-5 147,-9 148,-9c3,2 -64,1086 -68,1090c-2,2 -83,7 -180,11l-177,7l-32,-137z" fill="#0864bc" id="svg_11"/>
   <path d="m9080,-1210l0,-550l248,0c137,0 310,-3 385,-7l137,-6l0,166l0,167l-182,0c-101,0 -200,3 -221,7c-37,6 -38,7 -35,42l3,36l198,3c182,2 198,4 193,20c-2,9 -8,76 -11,149l-7,132l-42,-4c-22,-2 -107,-7 -187,-10l-147,-5l-3,44l-4,43l95,7c52,3 149,6 215,6c156,0 167,3 161,44c-3,17 -8,84 -12,149l-6,117l-389,0l-389,0l0,-550z" fill="#0864bc" id="svg_12"/>
   <path d="m10055,-675c-82,-7 -151,-14 -152,-14c-2,-1 -3,-245 -3,-542l0,-541l23,6c12,3 91,6 176,6l154,0l-7,153c-4,92 -3,146 3,137c5,-8 25,-75 45,-149c19,-73 37,-135 39,-138c3,-2 88,-1 189,3l185,7l8,534c4,294 5,536 2,539c-3,3 -79,-2 -170,-10c-90,-9 -172,-16 -180,-16c-14,0 -16,-10 -12,-65c3,-36 7,-94 10,-130c2,-36 1,-63 -4,-61c-5,3 -35,71 -67,151c-41,99 -64,144 -74,143c-8,0 -82,-6 -165,-13z" fill="#0864bc" id="svg_13"/>
   <path d="m4350,-2195c0,-98 1,-105 20,-105c17,0 20,7 20,40c0,39 1,40 35,40c28,0 35,4 35,20c0,16 -7,20 -35,20c-31,0 -35,3 -35,25c0,23 4,25 40,25c33,0 40,3 40,20c0,18 -7,20 -60,20l-60,0l0,-105z" fill="#0864bc" id="svg_14"/>
   <path d="m4510,-2195c0,-98 1,-105 20,-105c17,0 20,7 20,40c0,29 4,40 15,40c8,0 27,-18 41,-40c16,-23 35,-40 46,-40c16,0 17,3 7,23c-6,12 -21,32 -32,45l-21,22l23,21c49,46 9,99 -76,99l-43,0l0,-105zm95,40c0,-14 -8,-21 -27,-23c-24,-3 -28,0 -28,23c0,23 4,26 28,23c19,-2 27,-9 27,-23z" fill="#0864bc" id="svg_15"/>
   <path d="m4754,-2099c-32,-14 -64,-60 -64,-93c0,-68 61,-118 123,-103c70,18 98,118 47,170c-28,28 -74,39 -106,26zm77,-47c7,-9 13,-31 13,-49c0,-42 -19,-65 -55,-65c-31,0 -59,31 -59,65c0,54 69,87 101,49z" fill="#0864bc" id="svg_16"/>
   <path d="m4930,-2195c0,-87 3,-105 15,-105c12,0 15,14 15,70c0,41 4,70 10,70c6,0 31,-31 56,-70c30,-47 51,-70 64,-70c19,0 20,8 20,105c0,98 -1,105 -20,105c-17,0 -19,-8 -22,-72l-3,-73l-48,73c-32,48 -54,72 -67,72c-19,0 -20,-8 -20,-105z" fill="#0864bc" id="svg_17"/>
   <path d="m5150,-2110c0,-16 7,-20 30,-20l30,0l0,-85c0,-78 2,-85 20,-85c18,0 20,7 20,85l0,85l30,0c23,0 30,4 30,20c0,18 -7,20 -80,20c-73,0 -80,-2 -80,-20z" fill="#0864bc" id="svg_18"/>
   <path d="m5340,-2195l0,-105l60,0c53,0 60,2 60,20c0,17 -7,20 -40,20c-36,0 -40,3 -40,25c0,22 4,25 35,25c28,0 35,4 35,20c0,16 -7,20 -35,20c-28,0 -35,4 -35,20c0,17 7,20 40,20c33,0 40,3 40,20c0,18 -7,20 -60,20l-60,0l0,-105z" fill="#0864bc" id="svg_19"/>
   <path d="m5500,-2195c0,-98 1,-105 20,-105c17,0 19,8 22,75l3,76l50,-75c30,-45 57,-76 68,-76c15,0 17,12 17,105c0,87 -3,105 -15,105c-12,0 -15,-14 -15,-70c0,-38 -3,-70 -7,-70c-5,0 -28,32 -53,70c-34,52 -51,70 -67,70c-22,0 -23,-3 -23,-105z" fill="#0864bc" id="svg_20"/>
   <path d="m5740,-2194l0,-106l40,0c62,0 108,24 125,64c33,78 -10,137 -105,144l-60,4l0,-106zm114,48c9,-8 16,-31 16,-49c0,-41 -22,-65 -61,-65l-29,0l0,65l0,65l29,0c16,0 37,-7 45,-16z" fill="#0864bc" id="svg_21"/>
   <path d="m6040,-2196l0,-106l61,4c54,4 66,9 90,36c31,35 38,86 18,124c-14,27 -69,48 -124,48l-45,0l0,-106zm122,49c42,-38 10,-113 -48,-113l-34,0l0,65l0,65l32,0c17,0 40,-7 50,-17z" fill="#0864bc" id="svg_22"/>
   <path d="m6260,-2195l0,-105l60,0c53,0 60,2 60,20c0,17 -7,20 -40,20c-36,0 -40,3 -40,25c0,22 4,25 35,25c28,0 35,4 35,20c0,16 -7,20 -35,20c-28,0 -35,4 -35,20c0,17 7,20 40,20c33,0 40,3 40,20c0,18 -7,20 -60,20l-60,0l0,-105z" fill="#0864bc" id="svg_23"/>
   <path d="m6436,-2194c31,-93 39,-106 58,-106c20,0 27,14 59,106c35,102 36,105 15,102c-17,-2 -25,-17 -41,-73c-10,-38 -23,-74 -27,-79c-5,-5 -19,27 -33,70c-19,64 -28,80 -45,82c-20,3 -20,0 14,-102z" fill="#0864bc" id="svg_24"/>
   <path d="m6620,-2195l0,-105l60,0c53,0 60,2 60,20c0,17 -7,20 -40,20c-36,0 -40,3 -40,25c0,22 4,25 35,25c28,0 35,4 35,20c0,16 -7,20 -35,20c-28,0 -35,4 -35,20c0,17 7,20 40,20c33,0 40,3 40,20c0,18 -7,20 -60,20l-60,0l0,-105z" fill="#0864bc" id="svg_25"/>
   <path d="m6780,-2195l0,-105l60,0c53,0 60,2 60,20c0,17 -7,20 -40,20l-40,0l0,85c0,78 -2,85 -20,85c-19,0 -20,-7 -20,-105z" fill="#0864bc" id="svg_26"/>
   <path d="m6978,-2106c-35,-19 -48,-43 -48,-92c0,-73 57,-114 126,-92c39,13 64,52 64,100c0,42 -15,67 -50,85c-36,19 -57,18 -92,-1zm92,-43c5,-11 10,-32 10,-46c0,-44 -17,-65 -53,-65c-44,0 -57,15 -57,65c0,23 5,46 12,53c20,20 76,15 88,-7z" fill="#0864bc" id="svg_27"/>
   <path d="m7160,-2195c0,-98 1,-105 20,-105c16,0 20,7 20,34c0,31 3,34 39,40c68,11 91,67 46,111c-19,20 -34,25 -75,25l-50,0l0,-105zm104,50c10,-26 -5,-45 -35,-45c-26,0 -29,4 -29,30c0,26 3,30 29,30c16,0 31,-6 35,-15z" fill="#0864bc" id="svg_28"/>
   <path d="m7350,-2195l0,-105l60,0c53,0 60,2 60,20c0,17 -7,20 -40,20c-36,0 -40,3 -40,25c0,22 4,25 35,25c28,0 35,4 35,20c0,16 -7,20 -35,20c-28,0 -35,4 -35,20c0,16 7,20 35,20c28,0 35,4 35,20c0,18 -7,20 -55,20l-55,0l0,-105z" fill="#0864bc" id="svg_29"/>
   <path d="m7510,-2195c0,-98 1,-105 20,-105c17,0 20,7 20,40c0,29 4,40 15,40c8,0 27,-18 41,-40c16,-23 35,-40 46,-40c16,0 17,3 7,23c-6,12 -21,32 -32,45l-21,22l23,21c49,46 9,99 -76,99l-43,0l0,-105zm95,40c0,-14 -8,-21 -27,-23c-24,-3 -28,0 -28,23c0,23 4,26 28,23c19,-2 27,-9 27,-23z" fill="#0864bc" id="svg_30"/>
   <path d="m460,-2180c-11,-11 -20,-29 -20,-40c0,-11 9,-29 20,-40c20,-20 33,-20 1861,-20c1675,0 1841,1 1835,16c-3,9 -6,36 -6,60l0,44l-1835,0c-1822,0 -1835,0 -1855,-20z" fill="#0864bc" id="svg_31"/>
   <path d="m7920,-2204c0,-24 -3,-51 -6,-60c-6,-15 157,-16 1800,-16c1793,0 1806,0 1826,20c11,11 20,29 20,40c0,11 -9,29 -20,40c-20,20 -33,20 -1820,20l-1800,0l0,-44z" fill="#0864bc" id="svg_32"/>
  </g>
 </g>
</svg>